<svg xmlns="http://www.w3.org/2000/svg" xmlns:xlink="http://www.w3.org/1999/xlink" width="500" height="500" viewBox="0 0 500 500">
  <defs>
    <clipPath id="clip-path">
      <rect id="Rectangle_4" data-name="Rectangle 4" width="500" height="500" fill="#fff"/>
    </clipPath>
    <clipPath id="clip-path-2">
      <rect id="Rectangle_2" data-name="Rectangle 2" width="236.265" height="207.159" transform="translate(0 65.599) rotate(-16.12)" fill="none"/>
    </clipPath>
    <clipPath id="clip-path-3">
      <rect id="Rectangle_3" data-name="Rectangle 3" width="207.159" height="236.265" transform="matrix(0.278, -0.961, 0.961, 0.278, 0, 199.014)" fill="none"/>
    </clipPath>
    <clipPath id="clip-Img-pyladiesbkk">
      <rect width="500" height="500"/>
    </clipPath>
  </defs>
  <g id="Img-pyladiesbkk" clip-path="url(#clip-Img-pyladiesbkk)">
    <rect width="500" height="500" fill="#fff"/>
    <g id="Mask_Group_1" data-name="Mask Group 1" clip-path="url(#clip-path)">
      <g id="Group_5" data-name="Group 5" transform="translate(-456.105 13.049)">
        <path id="Path_1" data-name="Path 1" d="M739.629,137.19A109.238,109.238,0,1,1,630.394,27.951,109.239,109.239,0,0,1,739.629,137.19" transform="translate(115.719)" fill="#2d1c10"/>
        <path id="Path_2" data-name="Path 2" d="M731.81,152.061a110.1,110.1,0,1,1-220.209,0c0-60.809,22.854-105.7,110.106-106.109,55.359-.26,110.1,45.3,110.1,106.109" transform="translate(106.18 17.974)" fill="#aa2c86"/>
        <path id="Path_3" data-name="Path 3" d="M793.764,223.8A168.7,168.7,0,1,1,625.071,55.1,168.7,168.7,0,0,1,793.764,223.8" transform="translate(51.029 27.113)" fill="#2d1c10"/>
        <path id="Path_4" data-name="Path 4" d="M611.281,121.29c-2.142-.086-4.189-.074-6.258-.088-2.068.014-4.115,0-6.252.088-106.587,4.2-122.328,82.188-122.328,82.188s30.908,91.186,56.7,112.1c14.841,12.042,52.583,31.75,71.883,33.261,19.3-1.511,57.042-21.219,71.883-33.261,25.79-20.917,56.7-112.1,56.7-112.1s-15.741-77.987-122.324-82.188" transform="translate(71.073 93.12)" fill="#fff"/>
        <path id="Path_5" data-name="Path 5" d="M555.967,199.107s12.121,16.938,27.067,16.938S610.1,199.107,610.1,199.107s-12.117-15.537-27.069-15.537-27.067,15.537-27.067,15.537" transform="translate(150.484 155.4)" fill="#fff"/>
        <path id="Path_6" data-name="Path 6" d="M561.208,193.483a16.55,16.55,0,0,1,.44-3.731,21.322,21.322,0,0,1,32.463.759,16.586,16.586,0,1,1-32.9,2.972" transform="translate(155.718 154.458)" fill="#1a1818"/>
        <path id="Path_7" data-name="Path 7" d="M610.69,204.725a40.5,40.5,0,0,0-25.044-15.993c-16.826-3.2-29.679,14.706-29.679,14.706s10.475-18.3,22.374-21.381a28.878,28.878,0,0,1,8.548-.52s6.933-2.854,7.982-2.21-1.317,3.849-1.317,3.849,7.825-3.154,8.33-2.053-2.258,4.956-2.258,4.956,9.737-5.924,10.479-4.361-4.3,6.823-4.3,6.823,15.923-7.509,16.638-4.6-11.082,11.576-11.082,11.576,20.328-8.022,20.831-5-21.713,15.555-21.713,15.555Z" transform="translate(150.484 151.069)" fill="#1a1818"/>
        <path id="Path_8" data-name="Path 8" d="M571.294,190.255a4.308,4.308,0,1,1-4.309-4.3,4.311,4.311,0,0,1,4.309,4.3" transform="translate(157.185 157.777)" fill="#fff"/>
        <path id="Path_9" data-name="Path 9" d="M508.952,204.725A40.514,40.514,0,0,1,534,188.733c16.824-3.2,29.675,14.706,29.675,14.706s-10.479-18.3-22.376-21.381a28.865,28.865,0,0,0-8.546-.52s-6.929-2.854-7.984-2.21,1.321,3.849,1.321,3.849-7.831-3.154-8.332-2.053,2.256,4.956,2.256,4.956-9.739-5.924-10.477-4.361,4.3,6.823,4.3,6.823-15.919-7.509-16.64-4.6,11.082,11.576,11.082,11.576-20.326-8.022-20.825-5,21.709,15.555,21.709,15.555Z" transform="translate(82.064 151.069)" fill="#1a1818"/>
        <path id="Path_10" data-name="Path 10" d="M536.928,193.483a16.772,16.772,0,0,0-.436-3.731,21.324,21.324,0,0,0-32.465.759,16.585,16.585,0,1,0,32.9,2.972" transform="translate(98.335 154.458)" fill="#1a1818"/>
        <path id="Path_11" data-name="Path 11" d="M513.784,190.257a4.309,4.309,0,1,1-4.307-4.307,4.309,4.309,0,0,1,4.307,4.307" transform="translate(99.754 157.777)" fill="#fff"/>
        <path id="Path_12" data-name="Path 12" d="M539.55,217.08c1.833,1.1,4,.128,6.324.128s4.489.969,6.327-.128a34.938,34.938,0,0,0,3.865-.8,12.293,12.293,0,0,1-20.388,0,34.85,34.85,0,0,0,3.871.8" transform="translate(130.224 188.067)" fill="#1a1818"/>
        <path id="Path_13" data-name="Path 13" d="M535.8,168.777c13.215-.232,26.11,1.895,38.957,4.427,7.685,1.513,15.371,3.032,23.1,4.333a56.833,56.833,0,0,0,19.5-.516c10.015-1.787,19.966-3.911,30.023-5.464,7.379-1.139,14.874-1.755,22.346-2.3a146.656,146.656,0,0,1,26.619.735q15.355,1.67,30.706,3.392c3.29.368,6.569.8,9.851,1.225,1.765.226,2.158.586,2.2,2.168.116,4.309.194,8.62.28,12.929.02.971-.226,1.827-1.5,1.9a6.193,6.193,0,0,0-5.742,4.119,51.047,51.047,0,0,0-2.159,7.685c-1.843,8.476-3.262,17.046-6.389,25.24-3.124,8.168-8.342,14.834-16.884,18.961a50.328,50.328,0,0,1-16.61,4.4,110.134,110.134,0,0,1-20.422.228c-11.05-.849-21.337-3.6-29.847-10.549-5.882-4.8-10.063-10.742-13.556-17.128a146.811,146.811,0,0,1-8.922-20.28,21.606,21.606,0,0,0-2.648-5.262c-3.492-4.867-11.626-5.52-16.241-1.413-2.854,2.54-4.423,5.8-5.752,9.138a130.61,130.61,0,0,1-9.441,19.8c-5.284,8.684-12.285,15.8-22.172,20.242a63.222,63.222,0,0,1-19.428,4.99,80.357,80.357,0,0,1-16.962.208c-11.13-1.183-21.347-4.391-29.541-11.8a29.467,29.467,0,0,1-8.4-14.176,244.322,244.322,0,0,1-6.393-27.585,8.927,8.927,0,0,0-6.807-7.565,2.051,2.051,0,0,1-1.729-2.144c.064-4.183.12-8.366.29-12.547.086-2.126,1.045-2.88,3.368-3.088,10.079-.9,20.15-1.919,30.239-2.7,10-.771,20.022-1.311,30.035-1.955Zm-.925,4.743c-2.348,0-4.7-.034-7.045.008a85.5,85.5,0,0,0-19.412,2.1c-6.793,1.7-12.215,5.036-15.311,11.062-2.52,4.9-3.3,10.145-3.627,15.485-.466,7.687,0,15.287,2.542,22.674,4.469,12.967,13.926,20.759,28.664,22.9a77.969,77.969,0,0,0,24.451-.516c14.32-2.444,25.08-9.709,32.361-21.1a61.081,61.081,0,0,0,9.281-27.451c.556-5.8-1.437-10.527-6.18-14.33a40.169,40.169,0,0,0-13.5-6.715C556.648,174.395,545.85,173.342,534.878,173.519Zm141.093.386c-9.459,0-17.68.416-25.786,1.969-6.116,1.171-12.026,2.864-17.174,6.27-5.376,3.556-8.366,8.32-8.062,14.47a63.308,63.308,0,0,0,8.292,28.89A41.857,41.857,0,0,0,658,245.367a74.875,74.875,0,0,0,39.33,1.089c10.253-2.4,16.914-8.494,20.29-17.676a55.208,55.208,0,0,0,3.048-14.118c.632-6.865,1.175-13.74.2-20.611-.949-6.641-4.291-11.978-10.994-15a49.592,49.592,0,0,0-9.709-3.142C691.827,174.075,683.293,173.971,675.97,173.905Z" transform="translate(66.481 140.288)" fill="#1a1818" fill-rule="evenodd"/>
        <path id="Path_14" data-name="Path 14" d="M455.756,280.068c61.477,17.544,94.833-93.224,94.833-93.224s51.81,11.724,107.446,50.826c72.725,51.112,145.166,42.4,145.166,42.4S742.246,214,747.241,102.765c-56.756-33.265-134.8-22.2-190.564-7.111S496.088,269.927,455.756,280.068" transform="translate(50.414 53.02)" fill="#2e1c0f"/>
        <path id="Path_15" data-name="Path 15" d="M533.682,175.28c-8.482-7.6-17.252-14.878-19.54-30,1.019,1,2.066,1.913,3.086,2.9a26.257,26.257,0,0,1-1.513-8.532,26.022,26.022,0,0,1-3.356-5.37c-.677-1.459-1.213-2.608-1.639-3.524a19.9,19.9,0,0,1-6.2-5.274l-.687-.426c-.182-.114-.342-.254-.522-.368-2.154,12.387-5,31.65-2.49,29.513,4.167,7.623,9.611,13.914,13.477,20.983.53-.258-.524.262,0,0-2.752-7.82-3.062-17.252-5.816-25.074,2.442-1.613-.805.538,0,0C513.55,162.13,521.8,170.652,533.682,175.28Z" transform="translate(94.437 96.595)" fill="#2d1c10"/>
        <path id="Path_16" data-name="Path 16" d="M649.365,104.49l-29.708,9.817,2.887,8.186,29.489-9.6Z" transform="translate(214.085 76.431)" fill="#aa2c86"/>
        <path id="Path_17" data-name="Path 17" d="M682.68,106.635c1.571,6.971-9.451,15.393-24.619,18.807s-28.732.532-30.3-6.441,9.449-15.4,24.615-18.809S681.109,99.66,682.68,106.635Z" transform="translate(222.027 70.705)" fill="#aa2c86"/>
        <circle id="Ellipse_1" data-name="Ellipse 1" cx="7.195" cy="7.195" r="7.195" transform="matrix(0.008, -1, 1, 0.008, 873.19, 205.073)" fill="#aa2c86"/>
        <rect id="Rectangle_1" data-name="Rectangle 1" width="2.998" height="44.142" transform="translate(878.941 197.582)" fill="#aa2c86"/>
        <path id="Path_18" data-name="Path 18" d="M675.73,142.657l-.186-.49a9.77,9.77,0,0,0-7.383-5.552,6.22,6.22,0,0,0,.454-5.082,4.84,4.84,0,0,1-2.96,1.933c.054-2.8-3.094-6.431-3.094-6.431s.63,1.853-3,3.783a6.219,6.219,0,0,0-1.259.879c-.953-2.876-3.951-5.33-6.841-6.26-4.531-1.455-5.152-3.905-5.152-3.905-.915,2.742,1.665,4.529,2.494,6.771s-1.373,4.945-1.373,4.945a5.978,5.978,0,0,0,.569-3.314,4.31,4.31,0,0,0-3.2-3.376c-2.992-.721-3.6.21-5.01-1.455,0,0-.42,2.84,1.631,3.947s2.217,3.27,1.493,5.318l-.07.232-.022.07-.042.176-.018.072-.046.234v.006l-.034.246-.008.066-.014.192,0,.066,0,.506,0,.048.012.21.006.05.078.512.008.022.052.228.008.032.158.492,0,.008.092.224.008.02.236.448a3.091,3.091,0,0,0,1.471,1.311,4.108,4.108,0,0,1-1.549-1.009l0,0-.134-.14-.008-.008-.122-.152-.014-.018-.112-.15-.018-.024-.1-.16-.02-.036-.09-.16-.022-.044-.082-.166-.026-.056-.068-.166-.022-.064-.062-.174-.018-.08-.046-.172-.018-.1-.034-.16-.02-.138-.016-.144-.014-.166-.008-.132v-.31l.01-.2,0-.126.026-.216.018-.13.062-.362c.414-2.284.871-3.863-.873-4.943a4.2,4.2,0,0,1-1.7-5.61,2.727,2.727,0,0,0,2.16,1.413c1.463.082,4,.088,5.506,1.879a11.856,11.856,0,0,0-5.838-5.95,4.588,4.588,0,0,1-3.2-3.989c-2.406,2.121-.124,5.278-.124,5.278-1.7-.248-2.488-1.995-2.532-3.448s-.372-3.741-2.948-4.7-2.618-2.616-2.618-2.616a2.946,2.946,0,0,0,.706,4.237c1.869,1.411.835,2.408.913,5.152.17,5.234,2.746,5.566,4.821,6.855a3.11,3.11,0,0,1,1.161,3.7c-1.2-2.824-4.4-2.2-4.4-2.2,3.032,1.121.833,4.153,2.782,8.058,1.575,3.15,5.846,4.407,7.443,4.777a4.3,4.3,0,0,0-.1.765v.452c.008.3.014.594.022.893-.056.829-.368,1.679-1.551,1.6a1.684,1.684,0,0,1-1.459-.747,1.442,1.442,0,0,0,1.183.282c1.511-.174,1.191-2.944-.346-2.984a3.819,3.819,0,0,1-2.578-1.331,8.449,8.449,0,0,1-.208,3.2,4.049,4.049,0,0,0,2.924,4.765,11.217,11.217,0,0,0,3.656.33,3.847,3.847,0,0,1-2.644.8,5.629,5.629,0,0,0,1.8.466h15.617v2.067h-22.4a10.176,10.176,0,0,0-10.177,8.262c-1.737,7.251-2.56,24.813,8.658,24.813h5.6v-7.443A10.349,10.349,0,0,1,651.7,168.836h16.269a8.207,8.207,0,0,0,8.144-8.278V145.047a7.769,7.769,0,0,0-.38-2.39m-22.488-11.446s-.166,1.245-2.075,2.742a5.689,5.689,0,0,0,1.241-4.153,7.694,7.694,0,0,1,4.071,4.653s-1.659-2.744-3.238-3.242m8.974,2.66a5.036,5.036,0,0,1-2.824.913s2.244-.747,2.824-1.995a7.828,7.828,0,0,1,1.083,2.742Z" transform="translate(220.658 84.114)" fill="#aa2c86"/>
        <path id="Path_19" data-name="Path 19" d="M643.278,129.877a3.544,3.544,0,1,1-3.544-3.544,3.545,3.545,0,0,1,3.544,3.544m-4.311.837a1.884,1.884,0,0,1,3.729-.38l.038-.458a3,3,0,1,0-1.719,2.714l-.162.006a1.884,1.884,0,0,1-1.887-1.883" transform="translate(230.593 98.243)" fill="#fff"/>
        <path id="Path_20" data-name="Path 20" d="M635.383,176.545l.184.488a9.753,9.753,0,0,0,7.381,5.554,6.242,6.242,0,0,0-.456,5.082,4.865,4.865,0,0,1,2.966-1.935c-.056,2.8,3.09,6.434,3.09,6.434s-.627-1.851,3.01-3.783a6.366,6.366,0,0,0,1.257-.877c.953,2.874,3.943,5.33,6.839,6.26,4.529,1.451,5.15,3.905,5.15,3.905.915-2.742-1.661-4.529-2.492-6.773s1.369-4.943,1.369-4.943a5.947,5.947,0,0,0-.566,3.314,4.3,4.3,0,0,0,3.2,3.374c2.992.721,3.6-.208,5.013,1.455,0,0,.418-2.84-1.631-3.945s-2.218-3.27-1.5-5.32l.072-.232.02-.07.046-.176.016-.07.044-.234,0-.008.036-.248,0-.066.018-.19,0-.066,0-.5,0-.048-.014-.212-.008-.05-.078-.51-.006-.024-.054-.23-.006-.03-.16-.492v-.006l-.094-.226-.008-.02-.236-.45a3.09,3.09,0,0,0-1.473-1.307,4.115,4.115,0,0,1,1.555,1.007l0,0,.126.142.01.006.122.15.016.02.114.15.016.026.1.158.018.036.092.162.02.04.082.168.026.06.066.164.022.066.062.17.02.08.044.172.022.1.032.162.02.136.016.144.016.166.006.13v.314l-.008.2-.012.126-.024.216-.014.13-.062.36c-.416,2.286-.869,3.865.874,4.947a4.2,4.2,0,0,1,1.7,5.608,2.727,2.727,0,0,0-2.161-1.413c-1.465-.082-4-.088-5.5-1.877a11.845,11.845,0,0,0,5.834,5.948,4.584,4.584,0,0,1,3.2,3.989c2.41-2.12.12-5.276.12-5.276,1.7.248,2.5,1.993,2.54,3.448s.372,3.739,2.946,4.695,2.616,2.616,2.616,2.616a2.946,2.946,0,0,0-.706-4.237c-1.869-1.411-.831-2.408-.915-5.15-.164-5.236-2.742-5.568-4.815-6.857a3.111,3.111,0,0,1-1.165-3.7c1.2,2.826,4.4,2.2,4.4,2.2-3.032-1.123-.829-4.155-2.782-8.06-1.573-3.15-5.848-4.407-7.445-4.777a4.456,4.456,0,0,0,.1-.765l0-.008v-.444c-.008-.3-.014-.6-.02-.893.058-.829.368-1.679,1.551-1.6a1.669,1.669,0,0,1,1.457.745,1.419,1.419,0,0,0-1.181-.28c-1.511.17-1.191,2.94.346,2.984a3.8,3.8,0,0,1,2.576,1.329,8.551,8.551,0,0,1,.208-3.2,4.48,4.48,0,0,0-.256-2.492,4.427,4.427,0,0,0-2.664-2.27,11.251,11.251,0,0,0-3.659-.336,3.854,3.854,0,0,1,2.648-.8,5.679,5.679,0,0,0-1.8-.468H651.269v-2.067h22.4a10.174,10.174,0,0,0,10.177-8.26c1.737-7.251,2.562-24.815-8.66-24.815h-5.6v7.443a10.349,10.349,0,0,1-10.171,10.121H643.145A8.21,8.21,0,0,0,635,158.644v15.511a7.641,7.641,0,0,0,.386,2.39m22.484,11.446s.168-1.247,2.081-2.74A5.692,5.692,0,0,0,658.7,189.4a7.712,7.712,0,0,1-4.069-4.655s1.663,2.742,3.24,3.242m-8.974-2.658a5.013,5.013,0,0,1,2.828-.915s-2.249.749-2.828,2a7.835,7.835,0,0,1-1.079-2.744Z" transform="translate(229.403 104.705)" fill="#aa2c86"/>
        <path id="Path_21" data-name="Path 21" d="M646.455,155.786A3.544,3.544,0,1,1,650,159.33a3.543,3.543,0,0,1-3.544-3.544m4.309-.837a1.885,1.885,0,0,1-3.731.38l-.034.458a3,3,0,1,0,3-3,2.968,2.968,0,0,0-1.281.292l.164-.008a1.882,1.882,0,0,1,1.883,1.883" transform="translate(240.845 124.115)" fill="#fff"/>
        <g id="Group_2" data-name="Group 2" transform="translate(663.728 211.986)">
          <g id="Group_1" data-name="Group 1" clip-path="url(#clip-path-2)">
            <path id="Path_22" data-name="Path 22" d="M470.963,282.644a168.7,168.7,0,1,1,208.9,115.225,168.7,168.7,0,0,1-208.9-115.225m-18.839,5.444a168.7,168.7,0,1,0,115.223-208.9,168.7,168.7,0,0,0-115.223,208.9" transform="translate(-623.607 -172.928)" fill="#2d1c10"/>
          </g>
        </g>
        <g id="Group_4" data-name="Group 4" transform="translate(405.271 211.731)">
          <g id="Group_3" data-name="Group 3" clip-path="url(#clip-path-3)">
            <path id="Path_23" data-name="Path 23" d="M789.279,282.515a168.7,168.7,0,1,1-115.223-208.9,168.695,168.695,0,0,1,115.223,208.9m18.837,5.446a168.7,168.7,0,1,0-208.9,115.225,168.7,168.7,0,0,0,208.9-115.225" transform="translate(-352.141 -172.8)" fill="#2d1c10"/>
          </g>
        </g>
      </g>
    </g>
  </g>
</svg>
