<svg xmlns="http://www.w3.org/2000/svg" xmlns:xlink="http://www.w3.org/1999/xlink" width="538.11" height="342.83" viewBox="0 0 538.11 342.83">
  <defs>
    <linearGradient id="linear-gradient" x1="0.498" y1="0.787" x2="0.503" y2="0.047" gradientUnits="objectBoundingBox">
      <stop offset="0" stop-color="#965cf2"/>
      <stop offset="1" stop-color="#ff8adc"/>
    </linearGradient>
    <linearGradient id="linear-gradient-2" x1="0.627" y1="0.744" x2="0.211" y2="-0.056" xlink:href="#linear-gradient"/>
    <linearGradient id="linear-gradient-3" x1="0.278" y1="0.152" x2="1.006" y2="1.224" gradientUnits="objectBoundingBox">
      <stop offset="0" stop-color="#6d6afe"/>
      <stop offset="1" stop-color="#3fb0f7"/>
    </linearGradient>
    <linearGradient id="linear-gradient-4" x1="0.55" y1="-0.053" x2="0.472" y2="0.81" gradientUnits="objectBoundingBox">
      <stop offset="0" stop-color="#1c8ef4"/>
      <stop offset="1" stop-color="#00cfdd"/>
    </linearGradient>
    <linearGradient id="linear-gradient-5" x1="0.766" y1="0.09" x2="0.03" y2="1.161" xlink:href="#linear-gradient-3"/>
    <linearGradient id="linear-gradient-6" x1="0.58" y1="0.143" x2="0.423" y2="0.841" xlink:href="#linear-gradient-3"/>
    <linearGradient id="linear-gradient-7" x1="0.498" y1="0.785" x2="0.503" y2="0.05" xlink:href="#linear-gradient"/>
    <linearGradient id="linear-gradient-8" x1="0.371" y1="-0.289" x2="0.413" y2="-0.008" xlink:href="#linear-gradient-3"/>
    <linearGradient id="linear-gradient-9" x1="0.51" y1="0.236" x2="0.494" y2="1.235" xlink:href="#linear-gradient-3"/>
    <linearGradient id="linear-gradient-10" x1="0.582" y1="0.383" x2="0.468" y2="0.545" xlink:href="#linear-gradient-3"/>
    <linearGradient id="linear-gradient-11" x1="0.672" y1="0.227" x2="0.412" y2="0.641" xlink:href="#linear-gradient-3"/>
    <linearGradient id="linear-gradient-12" x1="0.496" y1="0.106" x2="0.504" y2="0.917" xlink:href="#linear-gradient-4"/>
    <linearGradient id="linear-gradient-13" x1="0.519" y1="0.407" x2="0.615" y2="0.607" gradientUnits="objectBoundingBox">
      <stop offset="0" stop-color="#5a2d68"/>
      <stop offset="1" stop-color="#22043d"/>
    </linearGradient>
    <linearGradient id="linear-gradient-14" x1="0.586" y1="0.384" x2="1.178" y2="0.112" gradientUnits="objectBoundingBox">
      <stop offset="0" stop-color="#ff66bc"/>
      <stop offset="0.56" stop-color="#ff8adc"/>
      <stop offset="1" stop-color="#ffbba8"/>
    </linearGradient>
    <linearGradient id="linear-gradient-15" x1="0.581" y1="0.382" x2="1.16" y2="0.105" xlink:href="#linear-gradient-14"/>
    <linearGradient id="linear-gradient-16" x1="0.723" y1="0.513" x2="-0.039" y2="0.487" gradientUnits="objectBoundingBox">
      <stop offset="0" stop-color="#ff8a78"/>
      <stop offset="1" stop-color="#ffa799"/>
    </linearGradient>
    <linearGradient id="linear-gradient-17" x1="0.57" y1="0.197" x2="0.369" y2="0.587" gradientUnits="objectBoundingBox">
      <stop offset="0" stop-color="#3e4795"/>
      <stop offset="1" stop-color="#273088"/>
    </linearGradient>
    <linearGradient id="linear-gradient-18" x1="0.975" y1="0.442" x2="0.245" y2="0.525" xlink:href="#linear-gradient-16"/>
    <linearGradient id="linear-gradient-19" x1="0.446" y1="0.32" x2="0.574" y2="0.687" xlink:href="#linear-gradient-17"/>
    <linearGradient id="linear-gradient-20" x1="0.95" y1="0.484" x2="0.546" y2="0.495" xlink:href="#linear-gradient-17"/>
    <linearGradient id="linear-gradient-21" x1="1.588" y1="0.887" x2="-0.205" y2="0.323" xlink:href="#linear-gradient-17"/>
    <linearGradient id="linear-gradient-22" x1="0.864" y1="0.443" x2="0.405" y2="0.495" xlink:href="#linear-gradient-17"/>
    <linearGradient id="linear-gradient-23" x1="0.317" y1="0.284" x2="0.719" y2="1.011" xlink:href="#linear-gradient-14"/>
    <linearGradient id="linear-gradient-24" x1="0.508" y1="0.478" x2="0.437" y2="0.682" xlink:href="#linear-gradient-16"/>
    <linearGradient id="linear-gradient-25" x1="0.592" y1="0.274" x2="0.423" y2="0.775" gradientUnits="objectBoundingBox">
      <stop offset="0" stop-color="#ffb89e"/>
      <stop offset="1" stop-color="#ffa799"/>
    </linearGradient>
    <linearGradient id="linear-gradient-26" x1="0.525" y1="0.516" x2="0.49" y2="0.254" xlink:href="#linear-gradient-16"/>
    <linearGradient id="linear-gradient-27" x1="0.405" y1="0.232" x2="0.562" y2="1.152" xlink:href="#linear-gradient-14"/>
    <linearGradient id="linear-gradient-28" x1="0.429" y1="0.14" x2="0.582" y2="0.918" xlink:href="#linear-gradient-14"/>
    <linearGradient id="linear-gradient-29" x1="0.252" y1="0.363" x2="0.835" y2="0.685" xlink:href="#linear-gradient-14"/>
    <linearGradient id="linear-gradient-30" x1="0.439" y1="0.119" x2="0.501" y2="1.014" xlink:href="#linear-gradient-14"/>
    <linearGradient id="linear-gradient-31" x1="0.501" y1="0.245" x2="0.48" y2="1.181" gradientUnits="objectBoundingBox">
      <stop offset="0" stop-color="#a77ef7"/>
      <stop offset="1" stop-color="#5e65d6"/>
    </linearGradient>
    <linearGradient id="linear-gradient-32" x1="0.674" y1="0.2" x2="0.235" y2="0.737" xlink:href="#linear-gradient-31"/>
    <linearGradient id="linear-gradient-33" x1="0.268" y1="0.182" x2="1.1" y2="1.255" xlink:href="#linear-gradient-3"/>
    <linearGradient id="linear-gradient-34" x1="0.364" y1="1.068" x2="0.647" y2="0.259" xlink:href="#linear-gradient"/>
    <linearGradient id="linear-gradient-35" x1="0.239" y1="0.866" x2="0.892" y2="-0.049" xlink:href="#linear-gradient"/>
    <linearGradient id="linear-gradient-36" x1="0.41" y1="0.58" x2="0.692" y2="-0.229" xlink:href="#linear-gradient"/>
    <linearGradient id="linear-gradient-37" x1="0.607" y1="0.489" x2="0.78" y2="0.462" xlink:href="#linear-gradient-25"/>
    <linearGradient id="linear-gradient-38" x1="0.669" y1="0.301" x2="0.408" y2="0.833" xlink:href="#linear-gradient-16"/>
    <linearGradient id="linear-gradient-39" x1="-0.123" y1="0.557" x2="0.638" y2="0.452" xlink:href="#linear-gradient-17"/>
    <linearGradient id="linear-gradient-40" x1="0.516" y1="0.334" x2="0.401" y2="0.567" xlink:href="#linear-gradient-13"/>
    <linearGradient id="linear-gradient-41" x1="0.417" y1="0.499" x2="0.485" y2="0.525" xlink:href="#linear-gradient-25"/>
    <linearGradient id="linear-gradient-42" x1="1.311" y1="0.341" x2="-0.374" y2="0.628" xlink:href="#linear-gradient-16"/>
    <linearGradient id="linear-gradient-43" x1="0.543" y1="0.563" x2="0.656" y2="0.701" xlink:href="#linear-gradient-17"/>
    <linearGradient id="linear-gradient-44" x1="0.296" y1="0.245" x2="0.58" y2="0.468" xlink:href="#linear-gradient-17"/>
    <linearGradient id="linear-gradient-45" x1="0.492" y1="0.289" x2="0.591" y2="0.831" xlink:href="#linear-gradient-31"/>
    <linearGradient id="linear-gradient-46" x1="0.724" y1="0.418" x2="0.257" y2="0.987" xlink:href="#linear-gradient-31"/>
    <linearGradient id="linear-gradient-47" x1="0.489" y1="0.491" x2="0.578" y2="0.708" xlink:href="#linear-gradient-16"/>
    <linearGradient id="linear-gradient-48" x1="0.408" y1="0.274" x2="0.577" y2="0.775" xlink:href="#linear-gradient-25"/>
    <linearGradient id="linear-gradient-49" x1="0.332" y1="0.335" x2="0.521" y2="0.77" xlink:href="#linear-gradient-25"/>
    <linearGradient id="linear-gradient-50" x1="0.497" y1="0.364" x2="0.482" y2="1.221" xlink:href="#linear-gradient-31"/>
    <linearGradient id="linear-gradient-51" x1="0.392" y1="0.248" x2="0.589" y2="0.707" xlink:href="#linear-gradient-3"/>
    <linearGradient id="linear-gradient-52" x1="0.569" y1="0.208" x2="0.412" y2="0.872" gradientUnits="objectBoundingBox">
      <stop offset="0" stop-color="#ee78af"/>
      <stop offset="1" stop-color="#fab6a2"/>
    </linearGradient>
    <linearGradient id="linear-gradient-53" x1="0.884" y1="0.188" x2="0.072" y2="0.848" xlink:href="#linear-gradient-4"/>
    <linearGradient id="linear-gradient-54" x1="0.511" y1="0.212" x2="0.484" y2="0.907" gradientUnits="objectBoundingBox">
      <stop offset="0" stop-color="#94e69a"/>
      <stop offset="1" stop-color="#17adc9"/>
    </linearGradient>
    <linearGradient id="linear-gradient-55" x1="0.386" y1="0.132" x2="0.57" y2="0.726" gradientUnits="objectBoundingBox">
      <stop offset="0" stop-color="#fd90da"/>
      <stop offset="1" stop-color="#8e6dfd"/>
    </linearGradient>
  </defs>
  <g id="img-About-PyLadies" transform="translate(-212.491 -135.136)">
    <g id="Group_97" data-name="Group 97" transform="translate(212.491 135.136)">
      <g id="Group_95" data-name="Group 95" transform="translate(63.26 56.902)">
        <g id="Group_49" data-name="Group 49" transform="translate(36.648)">
          <path id="Path_1" data-name="Path 1" d="M705.236,407.429h300.743c8.061,0,14.656,6.893,14.656,15.316V660.817c0,8.422-6.6,15.316-14.656,15.316H705.236c-8.059,0-14.655-6.892-14.655-15.316V422.745C690.581,414.321,697.176,407.429,705.236,407.429Z" transform="translate(-690.581 -407.429)" fill-rule="evenodd" fill="url(#linear-gradient)"/>
          <g id="Group_48" data-name="Group 48">
            <path id="Path_2" data-name="Path 2" d="M705.236,407.429h300.743a14.7,14.7,0,0,1,14.656,14.655v4.674H690.581v-4.674A14.7,14.7,0,0,1,705.236,407.429Z" transform="translate(-690.581 -407.429)" fill="#3e4992" fill-rule="evenodd"/>
            <g id="Group_47" data-name="Group 47" transform="translate(271.521 4.73)">
              <path id="Path_3" data-name="Path 3" d="M1994.827,430.063a4.935,4.935,0,1,1-4.935,4.935A4.935,4.935,0,0,1,1994.827,430.063Z" transform="translate(-1989.892 -430.063)" fill="#5462be" fill-rule="evenodd"/>
              <path id="Path_4" data-name="Path 4" d="M2076.163,430.063a4.935,4.935,0,1,1-4.935,4.935A4.934,4.934,0,0,1,2076.163,430.063Z" transform="translate(-2054.231 -430.063)" fill="#5462be" fill-rule="evenodd"/>
              <path id="Path_5" data-name="Path 5" d="M2157.5,430.063a4.935,4.935,0,1,1-4.935,4.935A4.935,4.935,0,0,1,2157.5,430.063Z" transform="translate(-2118.571 -430.063)" fill="#5462be" fill-rule="evenodd"/>
            </g>
          </g>
        </g>
        <path id="Path_6" data-name="Path 6" d="M1560.163,530.156v-2.745c2.081,0,4.483-.167,6.61.052l-.267,2.732a61.486,61.486,0,0,0-6.343-.039Zm12.566,3.266a9.327,9.327,0,0,1,2.079,4.25v-.006l2.695-.519a12.053,12.053,0,0,0-2.69-5.512l-2.083,1.787Zm2.258,12.205h2.745v5.49h-2.745v-5.49Zm0,13.724h2.745v5.489h-2.745v-5.489Zm0,13.724h2.745v5.49h-2.745v-5.49Zm0,13.724h2.745v5.49h-2.745V586.8Zm0,13.724h2.745v5.49h-2.745v-5.49Zm0,13.724h2.745v5.489h-2.745v-5.489Zm0,13.724h2.745v5.49h-2.745v-5.49Zm0,13.724h2.745v5.49h-2.745v-5.49Zm-.028,13.612a9.275,9.275,0,0,1-1.553,4.468l2.272,1.541a12.016,12.016,0,0,0,2.017-5.786l-2.736-.222Zm-7.347,8.416a25.652,25.652,0,0,1-5.185.208v2.745a27.368,27.368,0,0,0,5.76-.269l-.574-2.684Zm-13.42.208v2.745h-5.49V663.93Zm-13.724,0v2.745h-5.49V663.93Zm-13.724,0v2.745h-5.49V663.93Zm-13.724,0v2.745h-5.489V663.93Zm-13.724,0v2.745h-5.49V663.93Zm-13.724,0v2.745h-5.489V663.93Zm-13.724,0v2.745h-5.49V663.93Zm-13.724,0v2.745h-5.489V663.93Zm-13.724,0v2.745h-5.49V663.93Zm-13.724,0v2.745h-5.49V663.93Zm-13.47-.141a9.311,9.311,0,0,1-4.3-1.985l-1.749,2.115a12.061,12.061,0,0,0,5.558,2.571l.489-2.7Zm-7.66-8.126a49.3,49.3,0,0,1-.061-5.338h-2.745a52.127,52.127,0,0,0,.077,5.636l2.729-.3Zm-.061-13.573h-2.745V636.6h2.745v5.49Zm0-13.724h-2.745v-5.49h2.745v5.49Zm0-13.724h-2.745v-5.49h2.745v5.49Zm0-13.724h-2.745v-5.49h2.745v5.49Zm0-13.724h-2.745v-5.49h2.745v5.49Zm0-13.724h-2.745v-5.49h2.745v5.49Zm0-13.724h-2.745v-5.489h2.745v5.489Zm0-13.724h-2.745v-5.49h2.745v5.49Zm2.032-12.329a9.427,9.427,0,0,1,3.787-2.848l-1.023-2.547a12.17,12.17,0,0,0-4.9,3.672l2.136,1.723Zm11.406-3.54v-2.745h5.49v2.745Zm13.724,0v-2.745h5.49v2.745Zm13.724,0v-2.745h5.489v2.745Zm13.724,0v-2.745h5.489v2.745Zm13.724,0v-2.745h5.489v2.745Zm13.724,0v-2.745h5.49v2.745Zm13.724,0v-2.745h5.49v2.745Zm13.724,0v-2.745h5.49v2.745Zm13.724,0v-2.745h5.49v2.745Zm13.724,0v-2.745h5.489v2.745Z" transform="translate(-1220.405 -502.29)" fill="#fff" fill-rule="evenodd"/>
        <path id="Rectangle_15" data-name="Rectangle 15" d="M37.044,0H84.6a37.044,37.044,0,0,1,37.044,37.044V78.518A37.045,37.045,0,0,1,84.6,115.563H37.043A37.043,37.043,0,0,1,0,78.52V37.044A37.044,37.044,0,0,1,37.044,0Z" transform="translate(195.353 33.755)" opacity="0.5" fill="url(#linear-gradient-2)" style="mix-blend-mode: multiply;isolation: isolate"/>
        <path id="Path_7" data-name="Path 7" d="M1624.269,1241.494l-162.416-.329c-4.1-.009-7.453,3.7-7.453,8.209v64.4c0,4.513,3.355,8.2,7.453,8.21l162.949.328Z" transform="translate(-1258.134 -1066.937)" fill-rule="evenodd" opacity="0.5" fill="url(#linear-gradient-3)" style="mix-blend-mode: multiply;isolation: isolate"/>
        <g id="Group_51" data-name="Group 51" transform="translate(204.64 174.228)">
          <path id="Rectangle_16" data-name="Rectangle 16" d="M34.465,0h129.25a34.466,34.466,0,0,1,34.466,34.466v1.972A34.465,34.465,0,0,1,163.716,70.9H34.465A34.465,34.465,0,0,1,0,36.439V34.465A34.465,34.465,0,0,1,34.465,0Z" fill="url(#linear-gradient-4)"/>
          <path id="Path_8" data-name="Path 8" d="M1577.665,1293.22l-.741-5.969h-7.653l-.741,5.969a21.637,21.637,0,0,0-6.39,2.446l-4.6-3.557-5.411,5.411,3.31,4.275a19.78,19.78,0,0,0-3.048,6.8l-5.119.651v7.653l5.119.652a19.765,19.765,0,0,0,3.048,6.8l-3.31,4.275,5.411,5.411,4.6-3.557a21.624,21.624,0,0,0,6.39,2.446l.741,5.969h7.653l.741-5.969a21.614,21.614,0,0,0,6.39-2.446l4.595,3.557,5.411-5.411-3.31-4.275a19.766,19.766,0,0,0,3.048-6.8l5.119-.652v-7.653l-5.119-.651a19.769,19.769,0,0,0-3.048-6.8l3.31-4.275-5.411-5.411-4.595,3.557a21.626,21.626,0,0,0-6.39-2.446Zm-4.567,6.854a13,13,0,1,1-13,13A13,13,0,0,1,1573.1,1300.073Z" transform="translate(-1536.243 -1277.62)" fill="#fff" fill-rule="evenodd" opacity="0.5"/>
          <g id="Group_50" data-name="Group 50" transform="translate(72.397 12.347)">
            <path id="Rectangle_17" data-name="Rectangle 17" d="M3.759,0H113.707a3.759,3.759,0,0,1,3.759,3.759v0a3.758,3.758,0,0,1-3.758,3.758H3.759A3.759,3.759,0,0,1,0,3.759v0A3.759,3.759,0,0,1,3.759,0Z" fill="#fff" opacity="0.5"/>
            <path id="Rectangle_18" data-name="Rectangle 18" d="M3.759,0H113.707a3.758,3.758,0,0,1,3.758,3.758v0a3.758,3.758,0,0,1-3.758,3.758H3.759A3.759,3.759,0,0,1,0,3.759v0A3.759,3.759,0,0,1,3.759,0Z" transform="translate(0 19.346)" fill="#fff" opacity="0.5"/>
            <path id="Rectangle_19" data-name="Rectangle 19" d="M3.759,0H113.707a3.759,3.759,0,0,1,3.759,3.759v0a3.758,3.758,0,0,1-3.758,3.758H3.759A3.759,3.759,0,0,1,0,3.759v0A3.759,3.759,0,0,1,3.759,0Z" transform="translate(0 38.692)" fill="#fff" opacity="0.5"/>
          </g>
        </g>
        <path id="Path_9" data-name="Path 9" d="M847.255,530.364V527.62h5.49a12.292,12.292,0,0,1,4.125.712l-.926,2.584a9.529,9.529,0,0,0-3.2-.551Zm14.013,5.168a9.524,9.524,0,0,1,1.1,4.46v.189h2.745v-.189a12.27,12.27,0,0,0-1.416-5.73l-2.434,1.27Zm1.1,12.883h2.745v5.49h-2.745v-5.49Zm0,13.724h2.745v5.49h-2.745v-5.49Zm0,13.724h2.745v5.49h-2.745v-5.49Zm0,13.724h2.745v5.49h-2.745v-5.49Zm0,13.724h2.745v5.49h-2.745v-5.49Zm0,13.724h2.745v5.49h-2.745v-5.49Zm0,13.724h2.745v5.49h-2.745v-5.49Zm0,13.724h2.745v5.489h-2.745v-5.489Zm0,13.724h2.745v5.49h-2.745v-5.49Zm0,13.724h2.745v5.49h-2.745v-5.49Zm0,13.724h2.745v5.49h-2.745v-5.49Zm0,13.724h2.745v5.489h-2.745v-5.489Zm0,13.724h2.745v5.489h-2.745V713.1Zm0,13.724h2.745v5.49h-2.745v-5.49Zm0,13.724h2.745v5.49h-2.745v-5.49Zm-.18,13.443a9.623,9.623,0,0,1-2.049,4.291l2.108,1.758a12.357,12.357,0,0,0,2.633-5.513l-2.692-.536Zm-8.21,7.7a47.747,47.747,0,0,1-5.311.08v2.745a50.458,50.458,0,0,0,5.66-.1l-.349-2.723Zm-13.545.08v2.745h-5.49v-2.745Zm-13.724,0v2.745h-5.49v-2.745Zm-13.724,0v2.745H807.5v-2.745Zm-13.724,0v2.745h-5.49v-2.745Zm-13.724,0v2.745h-5.49v-2.745Zm-13.724,0v2.745h-5.49v-2.745Zm-13.724,0v2.745H752.6v-2.745Zm-13.724,0v2.745a35.071,35.071,0,0,1-5.715-.179l.468-2.7a33.023,33.023,0,0,0,5.247.139Zm-11.263-3.79a9.582,9.582,0,0,1-1.875-4.373l-2.713.416a12.331,12.331,0,0,0,2.4,5.615l2.188-1.658Zm-1.987-12.393h-2.745V740.1h2.745v5.49Zm0-13.724h-2.745v-5.489h2.745v5.489Zm0-13.724h-2.745v-5.489h2.745v5.489Zm0-13.724h-2.745v-5.49h2.745v5.49Zm0-13.724h-2.745V685.2h2.745v5.49Zm0-13.724h-2.745v-5.49h2.745v5.49Zm0-13.724h-2.745v-5.49h2.745v5.49Zm0-13.724h-2.745V644.03h2.745v5.489Zm0-13.724h-2.745v-5.49h2.745v5.49Zm0-13.724h-2.745v-5.489h2.745v5.489Zm0-13.724h-2.745v-5.49h2.745v5.49Zm0-13.724h-2.745v-5.49h2.745v5.49Zm0-13.724h-2.745v-5.49h2.745v5.49Zm0-13.724h-2.745v-5.49h2.745v5.49Zm0-13.724h-2.745v-5.49h2.745v5.49Zm0-13.692a9.551,9.551,0,0,1,1.287-4.564l-2.366-1.391a12.3,12.3,0,0,0-1.664,5.891l2.744.064Zm6.792-8.969a15.714,15.714,0,0,1,5.039-.429V527.62a17.56,17.56,0,0,0-5.842.549l.8,2.625Zm13.273-.429V527.62h5.49v2.745Zm13.724,0V527.62H770.4v2.745Zm13.724,0V527.62h5.49v2.745Zm13.724,0V527.62h5.49v2.745Zm13.724,0V527.62h5.49v2.745Zm13.724,0V527.62H825.3v2.745Zm13.723,0V527.62h5.49v2.745Z" transform="translate(-683.829 -502.499)" fill="#fff" fill-rule="evenodd"/>
        <g id="Group_55" data-name="Group 55" transform="translate(0 78)">
          <path id="Path_10" data-name="Path 10" d="M690.581,780.683H803.337c3.43,0,6.236,3.773,6.236,8.369v89.721c0,4.6-2.811,8.37-6.236,8.37H690.581V780.683Z" transform="translate(-653.933 -780.683)" fill-rule="evenodd" opacity="0.5" fill="url(#linear-gradient-5)" style="mix-blend-mode: multiply;isolation: isolate"/>
          <g id="Group_54" data-name="Group 54">
            <path id="Path_11" data-name="Path 11" d="M521.153,780.683H657.624c3.269,0,5.944,3.47,5.944,7.7v82.531c0,4.229-2.679,7.7-5.944,7.7H521.153c-3.265,0-5.944-3.464-5.944-7.7V788.382C515.209,784.148,517.883,780.683,521.153,780.683Z" transform="translate(-515.209 -780.683)" fill-rule="evenodd" fill="url(#linear-gradient-6)"/>
            <g id="Group_52" data-name="Group 52" transform="translate(51.398 22.682)">
              <circle id="Ellipse_5" data-name="Ellipse 5" cx="22.781" cy="22.781" r="22.781" fill="url(#linear-gradient-7)"/>
            </g>
            <g id="Group_53" data-name="Group 53" transform="translate(8.401 80.196)">
              <rect id="Rectangle_20" data-name="Rectangle 20" width="131.557" height="7.528" rx="3.764" fill="#6d6afd"/>
              <path id="Path_12" data-name="Path 12" d="M559.807,1165.838h56.712a1.653,1.653,0,0,1,1.65,1.642v3.663a1.656,1.656,0,0,1-1.65,1.641H559.807a1.653,1.653,0,0,1-1.65-1.641v-3.663A1.651,1.651,0,0,1,559.807,1165.838Z" transform="translate(-557.583 -1165.547)" fill="#b269eb" fill-rule="evenodd"/>
            </g>
          </g>
        </g>
        <g id="Group_62" data-name="Group 62" transform="translate(30.81 192.579)">
          <path id="Path_13" data-name="Path 13" d="M797.182,1328.979H690.565l-.206,60.768c.214,3.077.578,4.727,1.1,5.488H797.182c7.129,0,12.976-6.234,12.976-13.852v-38.551C810.158,1335.212,804.319,1328.979,797.182,1328.979Z" transform="translate(-684.567 -1328.979)" fill-rule="evenodd" opacity="0.5" fill="url(#linear-gradient-8)" style="mix-blend-mode: multiply;isolation: isolate"/>
          <g id="Group_61" data-name="Group 61">
            <path id="Path_14" data-name="Path 14" d="M779.93,1387.441v34a12.26,12.26,0,0,1-12.217,12.217H674.859a12.256,12.256,0,0,1-12.216-12.217v-34Z" transform="translate(-662.643 -1375.224)" fill="#fff" fill-rule="evenodd"/>
            <path id="Path_15" data-name="Path 15" d="M674.859,1328.979h92.854A12.252,12.252,0,0,1,779.93,1341.2v3.976H662.643V1341.2A12.252,12.252,0,0,1,674.859,1328.979Z" transform="translate(-662.643 -1328.979)" fill-rule="evenodd" fill="url(#linear-gradient-9)"/>
            <g id="Group_56" data-name="Group 56" transform="translate(42.875 24.364)">
              <path id="Path_16" data-name="Path 16" d="M870.025,1445.57h48.743a2.319,2.319,0,0,1,2.214,2.4v5.349a2.322,2.322,0,0,1-2.214,2.4H870.025a2.32,2.32,0,0,1-2.214-2.4v-5.349A2.317,2.317,0,0,1,870.025,1445.57Z" transform="translate(-867.811 -1445.57)" fill="#3faff6" fill-rule="evenodd" opacity="0.2"/>
              <rect id="Rectangle_21" data-name="Rectangle 21" width="69.33" height="5.527" rx="2.764" transform="translate(0 15.146)" fill="#3faff6" opacity="0.2"/>
            </g>
            <g id="Group_57" data-name="Group 57" transform="translate(8.284 5.915)">
              <path id="Path_17" data-name="Path 17" d="M705.567,1357.284a3.284,3.284,0,1,1-3.284,3.285A3.285,3.285,0,0,1,705.567,1357.284Z" transform="translate(-702.283 -1357.284)" fill="#fff" fill-rule="evenodd"/>
              <path id="Path_18" data-name="Path 18" d="M759.7,1357.284a3.284,3.284,0,1,1-3.284,3.285A3.284,3.284,0,0,1,759.7,1357.284Z" transform="translate(-745.105 -1357.284)" fill="#fff" fill-rule="evenodd"/>
              <path id="Path_19" data-name="Path 19" d="M813.836,1357.284a3.284,3.284,0,1,1-3.284,3.285A3.285,3.285,0,0,1,813.836,1357.284Z" transform="translate(-787.927 -1357.284)" fill="#fff" fill-rule="evenodd"/>
            </g>
            <g id="Group_60" data-name="Group 60" transform="translate(2.804 18.284)">
              <g id="Group_58" data-name="Group 58">
                <path id="Path_20" data-name="Path 20" d="M695.111,1416.474a19.051,19.051,0,1,1-19.051,19.051A19.051,19.051,0,0,1,695.111,1416.474Z" transform="translate(-676.06 -1416.474)" fill-rule="evenodd" opacity="0.2" fill="url(#linear-gradient-10)"/>
                <circle id="Ellipse_6" data-name="Ellipse 6" cx="11.084" cy="11.084" r="11.084" transform="translate(7.967 7.967)" fill="url(#linear-gradient-11)"/>
              </g>
              <g id="Group_59" data-name="Group 59" transform="translate(13.935 12.303)">
                <path id="Path_21" data-name="Path 21" d="M747.859,1478.612a5.1,5.1,0,0,1,2.348.569v-1.468a.331.331,0,0,0-.329-.329h-4.039a.331.331,0,0,0-.329.329v1.468a5.1,5.1,0,0,1,2.348-.569Zm4.384,2.477a5.116,5.116,0,1,1-8.767,0v-3.376a2.368,2.368,0,0,1,2.364-2.364h4.039a2.368,2.368,0,0,1,2.364,2.364Z" transform="translate(-742.743 -1475.35)" fill="#fff" fill-rule="evenodd"/>
                <path id="Path_22" data-name="Path 22" d="M763.315,1510.074a1.032,1.032,0,0,1,.64,1.843v1.893a.641.641,0,0,1-.64.639h0a.642.642,0,0,1-.64-.639v-1.894a1.032,1.032,0,0,1,.64-1.842Z" transform="translate(-758.2 -1502.818)" fill-rule="evenodd"/>
              </g>
            </g>
          </g>
        </g>
        <g id="Group_63" data-name="Group 63" transform="translate(44.954 14.118)">
          <path id="Path_23" data-name="Path 23" d="M777.533,474.989H736.381a6.246,6.246,0,0,0-6.053,6.372v40.855a6.255,6.255,0,0,0,6.053,6.372h41.152a6.245,6.245,0,0,0,6.053-6.372V481.361A6.237,6.237,0,0,0,777.533,474.989Z" transform="translate(-730.328 -474.989)" fill-rule="evenodd" fill="url(#linear-gradient-12)"/>
          <path id="Path_24" data-name="Path 24" d="M778.41,503.087,777.779,498h-6.518l-.631,5.083a18.424,18.424,0,0,0-5.442,2.082l-3.913-3.029-4.608,4.608,2.819,3.641a16.844,16.844,0,0,0-2.6,5.79l-4.36.555v6.517l4.36.556a16.835,16.835,0,0,0,2.6,5.79l-2.819,3.641,4.608,4.608,3.913-3.029a18.422,18.422,0,0,0,5.442,2.083l.631,5.083h6.518l.631-5.083a18.4,18.4,0,0,0,5.442-2.083l3.913,3.029,4.608-4.608-2.819-3.641a16.838,16.838,0,0,0,2.6-5.79l4.359-.556v-6.517l-4.359-.555a16.835,16.835,0,0,0-2.6-5.79l2.819-3.641-4.608-4.608-3.913,3.029a18.415,18.415,0,0,0-5.442-2.082Zm-3.89,5.836a11.07,11.07,0,1,1-11.07,11.07A11.07,11.07,0,0,1,774.52,508.923Z" transform="translate(-747.89 -493.194)" fill="#fff" fill-rule="evenodd"/>
        </g>
        <g id="Group_77" data-name="Group 77" transform="translate(82.711 31.912)">
          <g id="Group_74" data-name="Group 74">
            <g id="Group_64" data-name="Group 64" transform="translate(103.61 14.129)">
              <path id="Path_25" data-name="Path 25" d="M1406.811,674.837q1.013-1.96,1.921-4.008c1.358-3.081,2.215-6.065,3.82-9.13,1.451-2.772,3-4.027,4.037-3.813,4.116.848,6.056,3.02,6.629,4.331.244.559.315,1.477-1.966,2.889-.785,2.222-.662,3.368-2.415,4.8-2.131,1.746-3.384,2.342-4.239,3.518a22.9,22.9,0,0,0-1.453,3.6Z" transform="translate(-1406.811 -651.57)" fill="#ffa698" fill-rule="evenodd"/>
              <path id="Path_26" data-name="Path 26" d="M1446.94,629.869l3.361-2.122c1.01,1.7-.677,3.124-2.192,3.854l-1.356,2.032-2.214,3.473c.176-.712-2.583-.925-2.333-1.655A27.892,27.892,0,0,1,1446.94,629.869Z" transform="translate(-1434.797 -627.747)" fill="#ffa698" fill-rule="evenodd"/>
              <path id="Path_27" data-name="Path 27" d="M1433.875,678.778c1.481-2.213,1.932-.082,3.427.959a6.464,6.464,0,0,0,2.733,1c.422.823-6.621,5.377-7.774,6.309.78-1.92,2.042-4.419,1.421-5.426Z" transform="translate(-1426.942 -667.348)" fill="#ff8f7f" fill-rule="evenodd"/>
            </g>
            <g id="Group_73" data-name="Group 73">
              <g id="Group_65" data-name="Group 65" transform="translate(2.849 0.384)">
                <path id="Path_28" data-name="Path 28" d="M972.711,564.69c-6.846-2.908-10.342.085-13.02,4.966-2.808,5.119-3.115,7.728-5.023,9.641-3.233,3.241-7.453,2.579-16.083,3.149-15.214,1.005-16.016,15.329-11.635,25.554,5.2,12.126,20.072,20.265,31.857,21.871,14.574,1.986,18.982-4.951,19.363-13.355.251-5.541-1.608-9.185-1.163-11.352,1.8-8.8,9.7-6.127,10.239-16.045.3-5.529-4.922-9.4-4.335-16.369C989.212,560.144,977.241,560.273,972.711,564.69Z" transform="translate(-924.637 -561.975)" fill-rule="evenodd" fill="url(#linear-gradient-13)"/>
                <path id="Path_29" data-name="Path 29" d="M932.755,636.01c.192.528.4,1.05.616,1.56,5.2,12.126,20.072,20.265,31.857,21.871,14.574,1.986,18.982-4.951,19.363-13.355.251-5.541-1.609-9.185-1.163-11.352,1.8-8.8,9.7-6.127,10.239-16.045.3-5.529-4.922-9.4-4.335-16.369.123-.245.236-.485.345-.721-3.366.926-7.846.188-12.8-2.242-1.2,2.942-1.12,6.18-1.4,9.376-3.206-1.849-4.15.515-4.378,3.951-.33,4.983-.5,6.142-2.152,6.944-10.3,5.02-11.172,6-19.435,15.689C943.575,642.277,940.1,640.738,932.755,636.01Z" transform="translate(-931.059 -591.545)" fill="#22043d" fill-rule="evenodd"/>
              </g>
              <g id="Group_66" data-name="Group 66" transform="translate(54.629 30.816)">
                <path id="Path_30" data-name="Path 30" d="M1192.489,720.573c4.385,12,19.187,19.452,28.641-8.653,2.392-.819,7.143.6,8.558,3.577-16.9,54.718-43.116,29.313-54.233,10.462-5.484-9.3-2.854-18.056,2.544-18.345C1181.418,707.431,1188.385,709.339,1192.489,720.573Z" transform="translate(-1172.424 -707.602)" fill-rule="evenodd" fill="url(#linear-gradient-14)"/>
                <path id="Path_31" data-name="Path 31" d="M1206.58,741.517c10.411-1.8,19.835-20.258,23.108-26.021-16.9,54.718-43.116,29.313-54.233,10.462-5.484-9.3-2.854-18.056,2.544-18.345,2.972-.159,8.46,1.263,12.582,9.016.338.635,1.183,6.116,2.033,11.175C1193.838,735.085,1197.92,743.017,1206.58,741.517Z" transform="translate(-1172.424 -707.602)" fill-rule="evenodd" opacity="0.7" fill="url(#linear-gradient-15)" style="mix-blend-mode: multiply;isolation: isolate"/>
              </g>
              <g id="Group_67" data-name="Group 67" transform="translate(0 87.33)">
                <path id="Path_32" data-name="Path 32" d="M945.138,1449.708c-9.77,8.221-12.975,18.771-20.194,24.86,1.185-8.616,3.316-15.533,5.588-23.93a104.722,104.722,0,0,0,8.34-8.82Z" transform="translate(-922.031 -1344.9)" fill-rule="evenodd" fill="url(#linear-gradient-16)"/>
                <path id="Path_33" data-name="Path 33" d="M918.627,1462.54c-2.1.924-3.933,2.287-4.224,3.823-.838,4.415.762,7.562-1.284,16.252-1,4.232-1.778,8.509-2.113,10.667,10.2-3.73,9.151-22.162,13.269-32.461A28.1,28.1,0,0,0,918.627,1462.54Z" transform="translate(-911.006 -1359.932)" fill-rule="evenodd" fill="url(#linear-gradient-17)"/>
                <path id="Path_34" data-name="Path 34" d="M1195.7,1510.014c-4.564,11.052-5.877,17.59-8.066,29.132l-2.822-3.06-4.877-19.067c3.9-4.669,4.761-8.456,7.049-13.486Z" transform="translate(-1123.733 -1393.718)" fill-rule="evenodd" fill="url(#linear-gradient-18)"/>
                <path id="Path_35" data-name="Path 35" d="M1170.116,1535.036c-8.988,5.9-10.407,6.015-6.289,14.425,4.156,8.489,5.4,16.043,6.686,21.567a12.2,12.2,0,0,0,4.017-11.468c-.881-6.474-2.916-10.011-4-15.387A66.294,66.294,0,0,1,1170.116,1535.036Z" transform="translate(-1109.252 -1418.638)" fill-rule="evenodd" fill="url(#linear-gradient-19)"/>
                <path id="Path_36" data-name="Path 36" d="M1150.347,1123.3c-5.823-2.735-8.709-4.165-13.834-8.052,4.073-11.932,8.779-27.677,7.083-37.263-3.87-21.878-20.656-31-22.1-66.675l25.214,3.776,5.5-2.536C1162.162,1063.047,1168.435,1071.253,1150.347,1123.3Z" transform="translate(-1077.508 -1004.361)" fill-rule="evenodd" fill="url(#linear-gradient-20)"/>
                <path id="Path_37" data-name="Path 37" d="M1136.513,1115.253c4.072-11.932,8.778-27.677,7.083-37.263-3.87-21.878-20.655-31-22.1-66.675l12.792,8.235c3.4,17.267,14.772,36,15.842,56.268C1150.8,1088.622,1146.271,1102.77,1136.513,1115.253Z" transform="translate(-1077.508 -1004.361)" fill-rule="evenodd" opacity="0.35" fill="url(#linear-gradient-21)" style="mix-blend-mode: multiply;isolation: isolate"/>
                <path id="Path_38" data-name="Path 38" d="M1000.641,978.037c-15.736,25.79,1.764,43.237-5.148,67.052-2.358,8.124-8.3,17.363-19.119,29.488,2.8,4.912,4.375,7.714,8.949,12.212,33.85-33.394,34.492-55.668,36.652-95.746Z" transform="translate(-962.714 -978.037)" fill-rule="evenodd" fill="url(#linear-gradient-22)"/>
              </g>
              <path id="Path_39" data-name="Path 39" d="M1085.336,707.906c-9.092,2.344-16.418,2.461-18.371,13.912-1.108,6.494,5.851,30.043.456,51.013,9.133,5.682,32.118,10.714,43.1.74-.5-5.967-2.9-19.047-3.712-29.9-.751-10,1.775-25.657-3.979-32.425C1099.19,706.969,1093.325,705.847,1085.336,707.906Z" transform="translate(-1034.277 -676.235)" fill-rule="evenodd" fill="url(#linear-gradient-23)"/>
              <path id="Path_40" data-name="Path 40" d="M1067.494,750.582a17.524,17.524,0,0,0-1.954,5.786c-1.01,5.92-.322,13.835.621,22.556l1.62,17.911-.245,2.268c12.692,5.119,26.963,1.585,34.843-1.283,2.256-.821,2.866-2.107,4.838-3.955l-1.417-11.337a26.348,26.348,0,0,0-9.19,3.624c-9.8,1.769-22.878,2.318-23.962-6.4-1.232-9.9,10.678-19.845,5.274-25.641Z" transform="translate(-1032.852 -710.784)" fill="#ff8fd5" fill-rule="evenodd" opacity="0.7" style="mix-blend-mode: multiply;isolation: isolate"/>
              <g id="Group_72" data-name="Group 72" transform="translate(44.32)">
                <g id="Group_70" data-name="Group 70" transform="translate(0 10.892)">
                  <g id="Group_68" data-name="Group 68" transform="translate(4.135 14.659)">
                    <path id="Path_41" data-name="Path 41" d="M1143.827,682.405a24.278,24.278,0,0,1-.946,8.1c.951,3.569,7.285,5.682,8.841.041a11.2,11.2,0,0,1-.453-4.277l-2.919-2.632Z" transform="translate(-1142.881 -682.405)" fill="#ffa698" fill-rule="evenodd"/>
                    <path id="Path_42" data-name="Path 42" d="M1147.293,682.405c0,1.058,0,1.892-.03,2.63,1.065,2.018,4.734,4.706,7.6,4.219a12.788,12.788,0,0,1-.13-2.984l-2.919-2.632Z" transform="translate(-1146.347 -682.405)" fill-rule="evenodd" fill="url(#linear-gradient-24)"/>
                  </g>
                  <g id="Group_69" data-name="Group 69">
                    <path id="Path_43" data-name="Path 43" d="M1141.065,613.739c.418,5.728,1.215,10.407-.843,14.8-1.763,3.759-4.454,3.375-7.227,2-2.829-1.4-4.325-2.286-6.241-4.707a6.7,6.7,0,0,1-2.269-1.229c-1.157-1.2-1.912-3.326-.961-4.707.423-.614,1.437-.167,2.112,1,.845,1.455,1.338.038,1.358-1,.055-2.867.833-4.651,1.405-7.628C1132.2,614.194,1137.248,616.688,1141.065,613.739Z" transform="translate(-1123.093 -612.259)" fill-rule="evenodd" fill="url(#linear-gradient-25)"/>
                    <path id="Path_44" data-name="Path 44" d="M1141.688,613.739c.065.9.14,1.77.212,2.618-3.907,1.435-8.026.6-12.281-2.621-.922,2.623-.428,4.7-.986,6.575-.455,1.527-1.114,2.206-2.031,1.877-1.295-.464-1.107-1.342-2.721-1.781a2.33,2.33,0,0,1,.267-.516c.423-.614,1.437-.167,2.112,1,.845,1.455,1.338.038,1.358-1,.055-2.867.833-4.651,1.405-7.628C1132.828,614.194,1137.872,616.688,1141.688,613.739Z" transform="translate(-1123.716 -612.259)" fill="#ffa698" fill-rule="evenodd"/>
                  </g>
                </g>
                <g id="Group_71" data-name="Group 71" transform="translate(4.089)">
                  <path id="Path_45" data-name="Path 45" d="M1154.026,573.865c-4.368.716-11.2-2.055-11.361-6.314-.144-3.915,4.328-6.542,8.15-7.236C1161.294,558.412,1163.6,572.3,1154.026,573.865Z" transform="translate(-1142.662 -560.137)" fill="#5a2d68" fill-rule="evenodd"/>
                  <path id="Path_46" data-name="Path 46" d="M1154.657,602.352c-4.017.658-10.121-1.632-11.2-5.316.028-.073.056-.145.086-.216,7.61,3.73,14.1,3.475,17.15-.67C1160.508,599,1158.581,601.709,1154.657,602.352Z" transform="translate(-1143.292 -588.623)" fill="#22043d" fill-rule="evenodd"/>
                </g>
              </g>
              <path id="Path_47" data-name="Path 47" d="M1197.291,918.306c3.072-.912,4.417-2.808,6.625-3.759a10.527,10.527,0,0,1,1.8-.5c1.3-.338,5.349-.272,8.68-.525,2-.151,3.913-.118,4.147,1.532a5.212,5.212,0,0,1-.35,2.773,2.154,2.154,0,0,1-1.638,1.292c-2.625.713-7.162,1.249-8.2,2.188-1.24,1.118-1.579,2.327-4.57,3.132-.584.157-4.585-.221-5.953.126q-1.337.345-2.586.7l-1.623-6.2A21.422,21.422,0,0,0,1197.291,918.306Z" transform="translate(-1134.559 -839.631)" fill-rule="evenodd" fill="url(#linear-gradient-26)"/>
              <path id="Path_48" data-name="Path 48" d="M1026.571,752.906c-8.536,9.512-8.566,27.229,21.253,21.506.927,1.75,2.494,5.086.759,7.986-56.243,10.8-45.469-24.078-34.053-42.751,5.632-9.212,13.67-9.417,16.463-4.788C1032.762,737.792,1034.56,744,1026.571,752.906Z" transform="translate(-985.662 -695.999)" fill-rule="evenodd" fill="url(#linear-gradient-27)"/>
            </g>
          </g>
          <g id="Group_76" data-name="Group 76" transform="translate(112.448 2.502)">
            <path id="Rectangle_22" data-name="Rectangle 22" d="M33.913,0h43.54a33.913,33.913,0,0,1,33.913,33.913V71.883A33.915,33.915,0,0,1,77.451,105.8H33.915A33.915,33.915,0,0,1,0,71.883V33.913A33.913,33.913,0,0,1,33.913,0Z" fill="#fff"/>
            <path id="Path_49" data-name="Path 49" d="M1484.407,606.021a9.871,9.871,0,1,1-9.871,9.871A9.871,9.871,0,0,1,1484.407,606.021Z" transform="translate(-1469.221 -598.934)" fill="#ff84d6" fill-rule="evenodd" opacity="0.3"/>
            <path id="Path_50" data-name="Path 50" d="M1501.656,627.826a5.314,5.314,0,1,1-5.315,5.314A5.315,5.315,0,0,1,1501.656,627.826Z" transform="translate(-1486.47 -616.182)" fill-rule="evenodd" fill="url(#linear-gradient-28)"/>
            <g id="Group_75" data-name="Group 75" transform="translate(29.169 9.428)">
              <path id="Rectangle_23" data-name="Rectangle 23" d="M2.784,0H29.241a2.783,2.783,0,0,1,2.783,2.783v0a2.783,2.783,0,0,1-2.783,2.783H2.784A2.784,2.784,0,0,1,0,2.784v0A2.784,2.784,0,0,1,2.784,0Z" fill="#ff84d6" opacity="0.3"/>
              <path id="Rectangle_24" data-name="Rectangle 24" d="M2.784,0H52.2a2.784,2.784,0,0,1,2.784,2.784v0A2.784,2.784,0,0,1,52.2,5.569H2.784A2.784,2.784,0,0,1,0,2.784v0A2.784,2.784,0,0,1,2.784,0Z" transform="translate(0 9.491)" fill="#ff84d6" opacity="0.3"/>
            </g>
            <rect id="Rectangle_25" data-name="Rectangle 25" width="99.91" height="68.129" rx="30.423" transform="translate(5.728 32.227)" opacity="0.2" fill="url(#linear-gradient-29)"/>
            <path id="Path_51" data-name="Path 51" d="M1520.271,770.137l28.6,38.219,17.678-15.179,21.047,31.63h-91.877Z" transform="translate(-1485.978 -728.754)" fill-rule="evenodd" fill="url(#linear-gradient-30)"/>
            <circle id="Ellipse_7" data-name="Ellipse 7" cx="6.328" cy="6.328" r="6.328" transform="translate(59.856 41.383)" fill="#ffc770"/>
          </g>
          <path id="Path_52" data-name="Path 52" d="M1420.766,681.677c2.87-.244,3.139-2.834,3.363-4.43a13.375,13.375,0,0,0,1.985-2.4c2.959-.929,3.6-1.469,3.018-2.87-1.018.158-3.39.728-4.244.948-4.385,2.624-5.152,2.787-6.864,9.1l2.276.685Z" transform="translate(-1312.07 -648.609)" fill="#ffa698" fill-rule="evenodd"/>
        </g>
        <g id="Group_94" data-name="Group 94" transform="translate(296.047 22.992)">
          <g id="Group_78" data-name="Group 78" transform="translate(55.921 31.418)">
            <path id="Path_53" data-name="Path 53" d="M2210,667.8c10.7,13.744,23.335,28.35,45.93,12.559,2.715-1.9,9.173-6.158,13.225-4.225,5.943,2.836,4.286,8.7,1.462,12.453-6.091,8.09-22.919,13.128-32.762,12.537-14.515-.872-27.285-10.682-38.375-29.051Z" transform="translate(-2199.482 -667.798)" fill-rule="evenodd" fill="url(#linear-gradient-31)"/>
            <path id="Path_54" data-name="Path 54" d="M2282.172,710.043c2.715-1.9,9.173-6.158,13.224-4.225,5.943,2.836,4.286,8.7,1.462,12.453-6.091,8.09-22.919,13.128-32.762,12.537-11.58-.7-22.051-7.081-31.443-18.963C2257.692,733.081,2269.3,725.358,2282.172,710.043Z" transform="translate(-2225.722 -697.484)" fill-rule="evenodd" opacity="0.35" fill="url(#linear-gradient-32)" style="mix-blend-mode: multiply;isolation: isolate"/>
          </g>
          <g id="Group_81" data-name="Group 81">
            <path id="Path_55" data-name="Path 55" d="M2002.7,517.452h-67.849c-1.632,0-2.971,1.738-2.971,3.853v39.658c0,2.115,1.339,3.853,2.971,3.853H2002.7Z" transform="translate(-1931.885 -517.452)" fill-rule="evenodd" opacity="0.5" fill="url(#linear-gradient-33)" style="mix-blend-mode: multiply;isolation: isolate"/>
            <g id="Group_80" data-name="Group 80" transform="translate(4.627)">
              <path id="Path_56" data-name="Path 56" d="M1956.833,517.452h64.417a3.089,3.089,0,0,1,2.806,3.293v35.3a3.091,3.091,0,0,1-2.806,3.293h-64.417a3.089,3.089,0,0,1-2.805-3.293v-35.3A3.087,3.087,0,0,1,1956.833,517.452Z" transform="translate(-1954.028 -517.452)" fill="#fff" fill-rule="evenodd"/>
              <g id="Group_79" data-name="Group 79" transform="translate(2.241 3.306)">
                <path id="Path_57" data-name="Path 57" d="M2149.576,552.829l-17.687-10.341,1.506-4.494,21.488,12.564L2153.059,556l-30.807,15.289v-.061l2.123-6.33Z" transform="translate(-2089.339 -537.007)" fill-rule="evenodd" fill="url(#linear-gradient-34)"/>
                <path id="Path_58" data-name="Path 58" d="M2080.856,568.54l11.826-35.265,5.092,0-11.827,35.269Z" transform="translate(-2056.593 -533.271)" fill-rule="evenodd" fill="url(#linear-gradient-35)"/>
                <path id="Path_59" data-name="Path 59" d="M1970.059,556.454l17.687,10.341-1.507,4.494-21.488-12.564,1.825-5.442,30.807-15.289v.062l-2.123,6.329Z" transform="translate(-1964.751 -537.007)" fill-rule="evenodd" fill="url(#linear-gradient-36)"/>
              </g>
            </g>
          </g>
          <g id="Group_93" data-name="Group 93" transform="translate(16.722 5.895)">
            <path id="Path_60" data-name="Path 60" d="M2319.043,869.594c-.287-1.722-2.483-12.593-.4-13.289,1.539-.542,4.656,2.288,8.291,9.467Z" transform="translate(-2253.841 -791.337)" fill="#5352cf" fill-rule="evenodd"/>
            <g id="Group_82" data-name="Group 82" transform="translate(29.54 78.606)">
              <path id="Path_61" data-name="Path 61" d="M2307.194,1132.969c.458,2.286-6.812-.145-17.907-3.054l1.972-10.6C2295.226,1121.682,2306.428,1129.147,2307.194,1132.969Z" transform="translate(-2260.862 -1078.042)" fill="#273087" fill-rule="evenodd"/>
              <path id="Path_62" data-name="Path 62" d="M2167.715,949.38c-2.258-10.793-10.143-26.167-11.523-27.3-1.652-1.36-2.434,2.745-2.812,7.952-.91,12.5,3.65,25.073,7.9,30.074Z" transform="translate(-2153.262 -921.814)" fill="#273087" fill-rule="evenodd"/>
            </g>
            <g id="Group_83" data-name="Group 83" transform="translate(39.079 81.756)">
              <path id="Path_63" data-name="Path 63" d="M2212.018,936.887c-12.493,18.089-19.524,25.823-4.974,47.795,11.491,17.353,23.027,35.064,24.673,44.2.554,3.074.171,6.682-.133,11.231-.262,3.913-.3,9.141-.375,14.1l8.588-14.505,1.479-12-1.315-6.575c-9.362-29.611-17.486-44.3-7.232-74.952Z" transform="translate(-2198.91 -936.887)" fill-rule="evenodd" fill="url(#linear-gradient-37)"/>
              <path id="Path_64" data-name="Path 64" d="M2212.018,936.887c-12.493,18.089-19.524,25.823-4.974,47.795q1.868,2.822,3.726,5.645c2.09-3.187,4-6.187,6.044-9.8,2.3,1.89,4.52,3.123,6.821,5.013,4.342,16.384,9.3,26.643,16.239,35.318-9.325-29.427-17.367-44.121-7.145-74.679Z" transform="translate(-2198.91 -936.887)" fill-rule="evenodd" fill="url(#linear-gradient-38)"/>
              <path id="Path_65" data-name="Path 65" d="M2361.037,1335.355a80.093,80.093,0,0,1-2.239,12.3c-1.318,4.554-3.64,8.221-5.316,13.662-1.2,3.884-1.913,8.913-.54,12.4,4.464-6.359,7.536-13.565,11.349-20.324l1.012.675a58.869,58.869,0,0,0,2.723-5.573c.982-2.313,1.147-3-.032-5.424C2366.237,1339.453,2364.951,1338.425,2361.037,1335.355Z" transform="translate(-2320.162 -1252.086)" fill-rule="evenodd" fill="url(#linear-gradient-39)"/>
            </g>
            <g id="Group_84" data-name="Group 84" transform="translate(99.507 0.384)">
              <path id="Path_66" data-name="Path 66" d="M2502.61,550.211c6.84-2.906,10.334.085,13.01,4.962,2.807,5.115,3.112,7.723,5.019,9.635,3.23,3.239,7.448,2.577,16.072,3.146,15.2,1,16,15.318,11.626,25.535-5.191,12.117-20.057,20.249-31.833,21.854-14.563,1.985-18.969-4.947-19.349-13.345-.25-5.536,1.607-9.178,1.163-11.344-1.8-8.79-9.7-6.123-10.232-16.034-.3-5.524,4.918-9.392,4.333-16.357C2486.12,545.668,2498.082,545.8,2502.61,550.211Z" transform="translate(-2488.074 -547.498)" fill-rule="evenodd" fill="url(#linear-gradient-40)"/>
              <path id="Path_67" data-name="Path 67" d="M2548.952,621.479q-.287.793-.615,1.56c-5.191,12.117-20.057,20.249-31.833,21.854-14.563,1.985-18.969-4.947-19.349-13.345-.25-5.536,1.607-9.178,1.163-11.344-1.8-8.79-9.7-6.123-10.232-16.034-.3-5.524,4.918-9.392,4.333-16.357-.123-.245-.236-.484-.345-.72,3.363.925,7.84.188,12.794-2.241,1.2,2.94,1.12,6.175,1.4,9.369,3.2-1.847,4.147.515,4.375,3.948.33,4.979.5,6.137,2.15,6.939,10.3,5.016,11.164,5.993,19.421,15.678C2538.141,627.742,2541.608,626.2,2548.952,621.479Z" transform="translate(-2488.074 -577.047)" fill="#22043d" fill-rule="evenodd"/>
            </g>
            <g id="Group_85" data-name="Group 85" transform="translate(0 79.907)">
              <path id="Path_68" data-name="Path 68" d="M2099.723,928.042c-29.833,31.4-29.921,26.326-34.838,46.081-3.372,13.546-2.776,32.529-9.559,46.841-2.724,5.746-6.453,9.1-16.665,19.1l9.451-1.4,16.355-8.054c1.2-4.708.963-9.4,2.422-13.494,1.968-5.521,5.469-13.042,8.663-20.945s6.446-16.805,10.678-23.708c4.476-7.3,18.456-18.685,25.164-24.694Z" transform="translate(-2033.07 -928.042)" fill-rule="evenodd" fill="url(#linear-gradient-41)"/>
              <path id="Path_69" data-name="Path 69" d="M2195.239,928.042c-14.545,15.311-22.018,21.949-26.429,27.022a33.066,33.066,0,0,0,7.884,11.973c-10.728,26.886-14.941,38.233-17.284,63.854l.573-.282c1.2-4.708.963-9.4,2.423-13.494,1.968-5.521,5.469-13.042,8.663-20.945s6.446-16.805,10.678-23.708c4.476-7.3,18.457-18.685,25.164-24.694Z" transform="translate(-2128.585 -928.042)" fill-rule="evenodd" fill="url(#linear-gradient-42)"/>
              <path id="Path_70" data-name="Path 70" d="M2044.614,1384.434a80.108,80.108,0,0,1-10.236,7.184c-4.137,2.315-7.671,3.371-12.858,5.716-3.671,1.66-8.145,5.271-9.615,8.715,7.644-1.39,14.892-4.361,22.354-6.493l.246,1.192a59.167,59.167,0,0,0,5.853-2.053c2.323-.956,2.922-1.327,3.788-3.883C2045.437,1391,2045.243,1389.369,2044.614,1384.434Z" transform="translate(-2011.905 -1289.06)" fill-rule="evenodd" fill="url(#linear-gradient-43)"/>
            </g>
            <path id="Path_71" data-name="Path 71" d="M2209.9,856.66c-21.149,18.425-39.234,12.092-46.444,13.638,1.4-.032,1.187,2.553,2.11,6.381,6.267,26,20.229,33.43,31.156,40.5,4.219,2.729,8.415,3.62,10.938,8.021-5.654-25.481,8.968-17.118,19.157-31.063,2.922-4,5.817-10.872,8.724-17.261Z" transform="translate(-2131.785 -791.669)" fill-rule="evenodd" fill="url(#linear-gradient-44)"/>
            <g id="Group_86" data-name="Group 86" transform="translate(64.849 31.769)">
              <path id="Path_72" data-name="Path 72" d="M2357.094,763.98c-11.47-6.778-22.872-15.8-30.031-27.126-2.113-3.344-3.81-6.13-4.835-5.989,8.424-1.805,13.269-3.041,25.523-17.123,5.774-6.636,8.089-12.726,15.783-14.735,13.19-3.445,21.165.31,23.387,5.967,1.462,3.725.968,8.474-.992,13.823C2381.131,731.889,2365.183,752.4,2357.094,763.98Z" transform="translate(-2322.228 -697.686)" fill-rule="evenodd" fill="url(#linear-gradient-45)"/>
              <path id="Path_73" data-name="Path 73" d="M2326.719,756.817c7.393-1.612,12.2-3.174,22.55-14.625,10.779,1.515,19.031-6.07,27.833-10.663,4.194-2.189,9.21.59,10.224,3.891.947,3.084.48,9.067-3.988,14.82C2370.948,766.194,2346.634,766.141,2326.719,756.817Z" transform="translate(-2325.781 -723.84)" fill-rule="evenodd" opacity="0.35" fill="url(#linear-gradient-46)" style="mix-blend-mode: multiply;isolation: isolate"/>
            </g>
            <g id="Group_91" data-name="Group 91" transform="translate(99.146)">
              <g id="Group_89" data-name="Group 89" transform="translate(3.027 10.884)">
                <g id="Group_87" data-name="Group 87" transform="translate(5.499 14.648)">
                  <path id="Path_74" data-name="Path 74" d="M2535.037,667.84a24.254,24.254,0,0,0,.945,8.1c-.951,3.566-7.28,5.678-8.835.041a11.185,11.185,0,0,0,.453-4.273l2.917-2.63Z" transform="translate(-2527.147 -667.84)" fill="#ffa698" fill-rule="evenodd"/>
                  <path id="Path_75" data-name="Path 75" d="M2535.542,667.84a24.909,24.909,0,0,0,.144,4.407c-1.064,2.016-5.034,3.794-7.9,3.307a11.66,11.66,0,0,0,.32-3.851l2.917-2.63Z" transform="translate(-2527.652 -667.84)" fill-rule="evenodd" fill="url(#linear-gradient-47)"/>
                </g>
                <g id="Group_88" data-name="Group 88">
                  <path id="Path_76" data-name="Path 76" d="M2501.341,599.225c-.418,5.724-1.215,10.4.842,14.784,1.762,3.757,4.451,3.372,7.222,2,2.827-1.4,4.322-2.285,6.237-4.7a6.687,6.687,0,0,0,2.267-1.229c1.157-1.2,1.911-3.324.961-4.7-.423-.614-1.436-.167-2.11,1-.844,1.454-1.337.038-1.357-1-.055-2.865-.832-4.648-1.4-7.622C2510.2,599.68,2505.156,602.172,2501.341,599.225Z" transform="translate(-2500.834 -597.746)" fill-rule="evenodd" fill="url(#linear-gradient-48)"/>
                  <path id="Path_77" data-name="Path 77" d="M2502.459,599.225c-.066.9-.14,1.768-.212,2.616,3.9,1.434,8.02.6,12.272-2.619.921,2.621.427,4.7.985,6.571.455,1.526,1.114,2.2,2.03,1.876,1.294-.464,1.106-1.342,2.719-1.779a2.3,2.3,0,0,0-.267-.515c-.423-.614-1.436-.167-2.11,1-.844,1.454-1.337.038-1.357-1-.055-2.865-.832-4.648-1.4-7.622C2511.313,599.68,2506.273,602.172,2502.459,599.225Z" transform="translate(-2501.952 -597.746)" fill="#ffa698" fill-rule="evenodd"/>
                </g>
              </g>
              <g id="Group_90" data-name="Group 90">
                <path id="Path_78" data-name="Path 78" d="M2492.4,559.38c4.365.716,11.2-2.053,11.352-6.309.144-3.912-4.325-6.538-8.144-7.231C2485.136,543.938,2482.833,557.812,2492.4,559.38Z" transform="translate(-2486.349 -545.661)" fill="#5a2d68" fill-rule="evenodd"/>
                <path id="Path_79" data-name="Path 79" d="M2492.463,587.845c4.014.658,10.113-1.63,11.189-5.312q-.041-.109-.085-.216c-7.6,3.728-14.088,3.472-17.138-.67C2486.616,584.491,2488.541,587.2,2492.463,587.845Z" transform="translate(-2486.412 -574.126)" fill="#22043d" fill-rule="evenodd"/>
              </g>
            </g>
            <g id="Group_92" data-name="Group 92" transform="translate(48.484 20.718)">
              <path id="Path_80" data-name="Path 80" d="M2251.047,668.474l-3-3c-3.2-4.07-4.1-4.077-4.13-9.409-.016-2.832.367-6.683,1.018-8.071a6.11,6.11,0,0,1,3.564-3.188c.509,6.435,4.08,8.686,4.782,12.184.53,2.639.461,5.67,1.958,8.485Z" transform="translate(-2243.916 -644.805)" fill-rule="evenodd" fill="url(#linear-gradient-49)"/>
              <path id="Path_81" data-name="Path 81" d="M2273.149,726.978c-1.38.106-5.488,2.058-6.9,4.6,13.348,17.3,28.042,27.731,51.964,23.983,24.4-3.822,27.888-30.456,15.754-29.336-6.753.623-12.273,9.325-19.938,13.562C2305.93,744.264,2288.565,743.928,2273.149,726.978Z" transform="translate(-2261.58 -709.185)" fill-rule="evenodd" fill="url(#linear-gradient-50)"/>
            </g>
          </g>
        </g>
      </g>
      <g id="Group_96" data-name="Group 96">
        <path id="Path_82" data-name="Path 82" d="M2608.209,1217.537a12.9,12.9,0,1,1-12.9,12.9,12.9,12.9,0,0,1,12.9-12.9Zm0,4.458a8.441,8.441,0,1,0,8.441,8.442A8.441,8.441,0,0,0,2608.209,1222Z" transform="translate(-2097.364 -991.344)" fill-rule="evenodd" fill="url(#linear-gradient-51)"/>
        <path id="Path_83" data-name="Path 83" d="M2496.486,1677.92a10.215,10.215,0,1,1-10.215,10.215,10.215,10.215,0,0,1,10.215-10.215Zm0,3.53a6.685,6.685,0,1,0,6.685,6.685A6.685,6.685,0,0,0,2496.486,1681.45Z" transform="translate(-2011.112 -1355.52)" fill-rule="evenodd" fill="url(#linear-gradient-52)"/>
        <path id="Path_84" data-name="Path 84" d="M1065.3,135.136a16.9,16.9,0,1,1-16.9,16.9,16.9,16.9,0,0,1,16.9-16.9Zm0,5.839a11.057,11.057,0,1,0,11.057,11.057A11.057,11.057,0,0,0,1065.3,140.975Z" transform="translate(-873.723 -135.136)" fill-rule="evenodd" fill="url(#linear-gradient-53)"/>
        <path id="Path_85" data-name="Path 85" d="M496.016,436.135c6.973,0,12.141,5.652,12.141,12.626s-5.168,12.626-12.141,12.626a12.626,12.626,0,0,1,0-25.251Zm0,4.364a8.262,8.262,0,1,0,8.262,8.262A8.262,8.262,0,0,0,496.016,440.5Z" transform="translate(-426.78 -373.234)" fill-rule="evenodd" fill="url(#linear-gradient-54)"/>
        <path id="Path_86" data-name="Path 86" d="M2602.462,322.332a2.762,2.762,0,1,1-2.762,2.762A2.762,2.762,0,0,1,2602.462,322.332Z" transform="translate(-2100.837 -283.213)" fill="#fc8fd9" fill-rule="evenodd"/>
        <circle id="Ellipse_8" data-name="Ellipse 8" cx="2.762" cy="2.762" r="2.762" transform="translate(300.847 9.199)" fill="#6970fc"/>
        <path id="Path_87" data-name="Path 87" d="M649.414,197.69a2.762,2.762,0,1,1-2.762,2.761A2.761,2.761,0,0,1,649.414,197.69Z" transform="translate(-555.924 -184.618)" fill="#ea89df" fill-rule="evenodd"/>
        <circle id="Ellipse_9" data-name="Ellipse 9" cx="2.762" cy="2.762" r="2.762" transform="translate(13.748 36.357)" fill="#f97bb5"/>
        <path id="Path_88" data-name="Path 88" d="M294.258,914.826a2.762,2.762,0,1,1-2.762,2.762A2.761,2.761,0,0,1,294.258,914.826Z" transform="translate(-274.986 -751.892)" fill="#93e599" fill-rule="evenodd"/>
        <path id="Path_89" data-name="Path 89" d="M229,1259.686a16.51,16.51,0,1,1-16.51,16.51,16.51,16.51,0,0,1,16.51-16.51Zm0,5.706a10.8,10.8,0,1,0,10.8,10.8A10.8,10.8,0,0,0,229,1265.392Z" transform="translate(-212.491 -1024.685)" fill-rule="evenodd" fill="url(#linear-gradient-55)"/>
        <path id="Path_90" data-name="Path 90" d="M2167.136,209.738a2.762,2.762,0,1,1-2.762,2.762A2.762,2.762,0,0,1,2167.136,209.738Z" transform="translate(-1756.483 -194.148)" fill="#f97bb5" fill-rule="evenodd"/>
      </g>
    </g>
  </g>
</svg>
